<?xml version="1.0" encoding="utf-8"?>
<svg width="29" height="22" viewBox="0 0 29 22" fill="none" xmlns="http://www.w3.org/2000/svg">
  <path d="M1.49414 4.82488L1.49414 17.424L7.21582 17.424Q9.26807 17.424 10.8325 16.6418Q12.4014 15.8595 13.2847 14.4489Q14.168 13.0339 14.168 11.1222Q14.168 9.19744 13.2847 7.79558Q12.4014 6.38933 10.8325 5.60711Q9.26807 4.82488 7.21582 4.82488L1.49414 4.82488ZM7.0752 15.029L4.41211 15.029L4.41211 7.2199L7.0752 7.2199Q8.33203 7.2199 9.25928 7.6989Q10.1865 8.17351 10.7007 9.04802Q11.2148 9.91814 11.2148 11.1222Q11.2148 12.3132 10.7007 13.1965Q10.1865 14.0754 9.25928 14.5544Q8.33203 15.029 7.0752 15.029ZM16.3621 4.82488L16.3621 17.424L22.8792 17.424Q25.3621 17.424 26.6409 16.5143Q27.9198 15.6047 27.9198 13.9875Q27.9198 12.8888 27.4056 12.133Q26.8914 11.3771 25.973 10.9904Q25.8074 10.9207 25.633 10.8635Q26.3639 10.4743 26.7992 9.82146Q27.2869 9.09197 27.2869 8.0988Q27.2869 6.62224 26.0872 5.72576Q24.8919 4.82488 22.5189 4.82488L16.3621 4.82488ZM22.6639 15.2267L19.2581 15.2267L19.2581 12.1154L22.6639 12.1154Q23.7977 12.1154 24.3822 12.5021Q24.9666 12.8888 24.9666 13.6799Q24.9666 14.4885 24.3822 14.8576Q23.7977 15.2267 22.6639 15.2267ZM19.2581 9.98845L19.2581 7.02214L22.1585 7.02214Q23.222 7.02214 23.7889 7.39128Q24.3558 7.75603 24.3558 8.49431Q24.3558 9.25017 23.7889 9.61931Q23.222 9.98845 22.1585 9.98845L19.2581 9.98845Z" fill="#6A008A" />
</svg>