<?xml version="1.0" encoding="utf-8"?>
<svg width="166" height="22" viewBox="0 0 166 22" fill="none" xmlns="http://www.w3.org/2000/svg">
  <path d="M1.49414 4.82488L1.49414 17.424L7.21582 17.424Q9.26807 17.424 10.8325 16.6418Q12.4014 15.8595 13.2847 14.4489Q14.168 13.0339 14.168 11.1222Q14.168 9.19744 13.2847 7.79558Q12.4014 6.38933 10.8325 5.60711Q9.26807 4.82488 7.21582 4.82488L1.49414 4.82488ZM7.0752 15.029L4.41211 15.029L4.41211 7.2199L7.0752 7.2199Q8.33203 7.2199 9.25928 7.6989Q10.1865 8.17351 10.7007 9.04802Q11.2148 9.91814 11.2148 11.1222Q11.2148 12.3132 10.7007 13.1965Q10.1865 14.0754 9.25928 14.5544Q8.33203 15.029 7.0752 15.029ZM20.1416 4.82488L14.5254 17.424L17.5137 17.424L18.6363 14.7258L24.478 14.7258L25.5952 17.424L28.6538 17.424L23.02 4.82488L20.1416 4.82488ZM23.5609 12.5109L19.5577 12.5109L21.5641 7.68845L23.5609 12.5109ZM29.9701 4.82488L29.9701 17.424L32.8881 17.424L32.8881 12.8361L38.7197 12.8361L38.7197 10.4938L32.8881 10.4938L32.8881 7.16277L39.4931 7.16277L39.4931 4.82488L29.9701 4.82488ZM44.1725 7.19793L44.1725 17.424L47.0861 17.424L47.0861 7.19793L51.1202 7.19793L51.1202 4.82488L40.1383 4.82488L40.1383 7.19793L44.1725 7.19793ZM56.0156 4.82488L50.3994 17.424L53.3877 17.424L54.5103 14.7258L60.352 14.7258L61.4692 17.424L64.5278 17.424L58.894 4.82488L56.0156 4.82488ZM59.4349 12.5109L55.4317 12.5109L57.4381 7.68845L59.4349 12.5109ZM65.8441 4.82488L65.8441 17.424L68.7621 17.424L68.7621 13.9128L71.2978 13.9128Q71.3663 13.9128 71.434 13.9119L73.8554 17.424L77.0019 17.424L74.1876 13.387Q74.1995 13.3818 74.2113 13.3766Q75.4374 12.8361 76.101 11.821Q76.7689 10.8014 76.7689 9.39519Q76.7689 7.25505 75.31 6.04216Q73.8554 4.82488 71.2274 4.82488L65.8441 4.82488ZM68.7621 11.5925L68.7621 7.19793L71.1352 7.19793Q72.4843 7.19793 73.1479 7.778Q73.8158 8.35369 73.8158 9.39519Q73.8158 10.4235 73.1479 11.008Q72.4843 11.5925 71.1352 11.5925L68.7621 11.5925ZM79.0741 4.82488L79.0741 17.424L85.5912 17.424Q88.0741 17.424 89.353 16.5143Q90.6318 15.6047 90.6318 13.9875Q90.6318 12.8888 90.1176 12.133Q89.6034 11.3771 88.685 10.9904Q88.5194 10.9207 88.345 10.8635Q89.0759 10.4743 89.5112 9.82146Q89.9989 9.09197 89.9989 8.0988Q89.9989 6.62224 88.7992 5.72576Q87.6039 4.82488 85.2309 4.82488L79.0741 4.82488ZM85.3759 15.2267L81.9701 15.2267L81.9701 12.1154L85.3759 12.1154Q86.5097 12.1154 87.0942 12.5021Q87.6786 12.8888 87.6786 13.6799Q87.6786 14.4885 87.0942 14.8576Q86.5097 15.2267 85.3759 15.2267ZM81.9701 9.98845L81.9701 7.02214L84.8705 7.02214Q85.934 7.02214 86.5009 7.39128Q87.0678 7.75603 87.0678 8.49431Q87.0678 9.25017 86.5009 9.61931Q85.934 9.98845 84.8705 9.98845L81.9701 9.98845ZM92.8441 4.82488L92.8441 17.424L102.6 17.424L102.6 15.0861L95.7401 15.0861L95.7401 12.1681L101.594 12.1681L101.594 9.90056L95.7401 9.90056L95.7401 7.16277L102.367 7.16277L102.367 4.82488L92.8441 4.82488ZM104.922 4.82488L104.922 17.424L114.155 17.424L114.155 15.0466L107.84 15.0466L107.84 4.82488L104.922 4.82488ZM119.826 4.82488L114.209 17.424L117.198 17.424L118.32 14.7258L124.162 14.7258L125.279 17.424L128.338 17.424L122.704 4.82488L119.826 4.82488ZM123.245 12.5109L119.242 12.5109L121.248 7.68845L123.245 12.5109ZM129.654 4.82488L129.654 17.424L132.533 17.424L132.533 9.77627L138.817 17.424L141.212 17.424L141.212 4.82488L138.329 4.82488L138.329 12.4684L132.067 4.82488L129.654 4.82488ZM144.172 17.1647Q145.244 17.6393 146.518 17.6393Q148.751 17.6393 149.902 16.488Q151.058 15.3366 151.058 12.9943L151.058 4.82488L143.728 4.82488L143.728 7.16277L148.158 7.16277L148.158 13.1569Q148.158 15.2443 146.378 15.2443Q145.71 15.2443 145.134 14.8971Q144.558 14.5456 144.036 13.86L142.414 15.8024Q143.1 16.6857 144.172 17.1647ZM157.626 4.82488L152.009 17.424L154.998 17.424L156.12 14.7258L161.962 14.7258L163.079 17.424L166.138 17.424L160.504 4.82488L157.626 4.82488ZM161.045 12.5109L157.042 12.5109L159.048 7.68845L161.045 12.5109Z" fill="#6A008A" />
</svg>